<svg width="30" height="100" fill="none" xmlns="http://www.w3.org/2000/svg"><path d="M26.8 92.37c-.486-3.843-2.004-5.996-2.971-8.969-1.031-3.203-2.154-6.214-3.252-9.29-1.043-2.934-2.129-5.797-3.157-8.764a381.894 381.894 0 0 1-3.136-9.462c-.955-3.018-2.211-5.65-2.81-9.386.397-.957.825-1.856 1.28-2.69 3.398-5.478 6.388-11.917 9.45-18.125 2.403-4.855 4.958-9.364 7.647-13.499.414-2.421-.085-4.567-.867-6.368a40.052 40.052 0 0 0-2.503-4.798c-.94-1.544-2.01-1.14-2.963-.064-1.536 1.73-3.014 3.664-4.516 5.522-.15.186-.28.442-.432.64-5.317 6.228-9.654 14.947-13.815 24.147-1.198 2.66-2.455 5.196-3.65 7.874-1.305 2.94-1.426 4.414-.51 7.823 1.118 4.138 2.335 8.149 3.524 12.217.77 2.659 1.564 5.285 2.315 7.97C8.83 75.72 11.976 83.094 14.917 90.8c1.086 2.855 2.33 5.425 3.708 7.656 1.216 1.967 2.278 2.05 3.589.269 1.457-1.973 2.892-4.004 4.586-6.355ZM3.161 43.169c5.067-14.46 16.06-33.315 21.86-37.479.703 1.185 1.46 2.351 1.773 4.683a145.723 145.723 0 0 0-2.18 3.883c-2.023 3.748-4.131 7.335-6.035 11.34-2.813 5.998-5.787 11.649-8.909 16.926-.532.89-1 1.922-1.603 3.126.511 2.287.867 4.594 1.488 6.516a668.01 668.01 0 0 0 5.891 17.458c2.287 6.464 4.672 12.768 6.996 19.162.187.597.354 1.223.498 1.87-.544 2.05-1.396 2.762-2.244 3.287-2.062-2.857-5.78-11.384-8.714-19.86-4.231-12.243-8.188-26.107-8.82-30.912Z" fill="#F11676"/></svg>