<svg width="30" height="100" fill="none" xmlns="http://www.w3.org/2000/svg"><path d="M3.2 92.37c.486-3.843 2.004-5.996 2.971-8.969 1.031-3.203 2.154-6.214 3.252-9.29 1.043-2.934 2.129-5.797 3.157-8.764 1.075-3.104 2.12-6.259 3.136-9.462.955-3.018 2.211-5.65 2.81-9.386a28.325 28.325 0 0 0-1.28-2.69c-3.398-5.478-6.388-11.917-9.45-18.125C5.393 20.83 2.838 16.32.149 12.185c-.414-2.421.085-4.567.867-6.368A40.05 40.05 0 0 1 3.519 1.02C4.46-.525 5.53-.121 6.482.955c1.536 1.73 3.014 3.664 4.516 5.522.15.186.28.442.432.64 5.317 6.228 9.654 14.947 13.815 24.147 1.198 2.66 2.455 5.196 3.65 7.874 1.305 2.94 1.426 4.414.51 7.823-1.118 4.138-2.335 8.149-3.524 12.217-.77 2.659-1.564 5.285-2.315 7.97-2.397 8.572-5.542 15.946-8.483 23.653-1.086 2.855-2.33 5.425-3.707 7.656-1.217 1.967-2.279 2.05-3.59.269-1.457-1.973-2.892-4.004-4.586-6.355Zm23.639-49.202c-5.067-14.46-16.06-33.315-21.86-37.479-.703 1.185-1.46 2.351-1.773 4.683.739 1.282 1.472 2.563 2.18 3.883 2.023 3.748 4.131 7.335 6.035 11.34 2.813 5.998 5.787 11.649 8.909 16.926.532.89 1 1.922 1.603 3.126-.511 2.287-.867 4.594-1.488 6.516a667.898 667.898 0 0 1-5.891 17.458c-2.287 6.464-4.672 12.768-6.996 19.162a23.083 23.083 0 0 0-.499 1.87c.545 2.05 1.397 2.762 2.245 3.287 2.062-2.857 5.78-11.384 8.714-19.86 4.231-12.243 8.188-26.107 8.82-30.912Z" fill="#F11676"/></svg>